<?xml version="1.0" encoding="UTF-8" standalone="no"?>
<!DOCTYPE svg PUBLIC "-//W3C//DTD SVG 1.1//EN"
 "http://www.w3.org/Graphics/SVG/1.1/DTD/svg11.dtd">
<!-- Generated by graphviz version 2.43.0 (0)
 -->
<!-- Title: trace_paths Pages: 1 -->
<svg width="864pt" height="211pt"
 viewBox="0.00 0.00 864.00 211.00" xmlns="http://www.w3.org/2000/svg" xmlns:xlink="http://www.w3.org/1999/xlink">
<g id="graph0" class="graph" transform="scale(1 1) rotate(0) translate(4 207)">
<title>trace_paths</title>
<polygon fill="white" stroke="transparent" points="-4,4 -4,-207 860,-207 860,4 -4,4"/>
<polygon fill="none" stroke="black" points="8.5,-83.5 8.5,-108.5 589.5,-108.5 589.5,-83.5 8.5,-83.5"/>
<text text-anchor="start" x="276" y="-93.3" font-family="Times,serif" font-weight="bold" font-size="14.00">Paths</text>
<polygon fill="none" stroke="black" points="8.5,-43.5 8.5,-83.5 589.5,-83.5 589.5,-43.5 8.5,-43.5"/>
<text text-anchor="start" x="187.5" y="-67.3" font-family="Times,serif" font-size="14.00">Path 0: 7 pkts, threads [0]</text>
<text text-anchor="start" x="13.5" y="-52.3" font-family="Times,serif" font-size="14.00">[pg&#45;input, ethernet&#45;input, ip4&#45;input, ip4&#45;lookup, ip4&#45;drop, error&#45;drop, drop]</text>
<polygon fill="none" stroke="black" points="8.5,-3.5 8.5,-43.5 589.5,-43.5 589.5,-3.5 8.5,-3.5"/>
<text text-anchor="start" x="205.5" y="-27.3" font-family="Times,serif" font-size="14.00">Path 1: 5 pkts, threads [0]</text>
<text text-anchor="start" x="13.5" y="-12.3" font-family="Times,serif" font-size="14.00">[pg&#45;input, ethernet&#45;input, ip4&#45;input, ip4&#45;lookup, ip4&#45;rewrite, pg1&#45;output, pg1&#45;tx]</text>
<!-- n521 -->
<g id="node1" class="node">
<title>n521</title>
<path fill="#f7f7f7" stroke="black" d="M65,-175C65,-175 12,-175 12,-175 6,-175 0,-169 0,-163 0,-163 0,-151 0,-151 0,-145 6,-139 12,-139 12,-139 65,-139 65,-139 71,-139 77,-145 77,-151 77,-151 77,-163 77,-163 77,-169 71,-175 65,-175"/>
<text text-anchor="middle" x="38.5" y="-153.3" font-family="Times,serif" font-size="14.00">pg&#45;input</text>
</g>
<!-- n781 -->
<g id="node6" class="node">
<title>n781</title>
<path fill="#f7f7f7" stroke="black" d="M234,-175C234,-175 138,-175 138,-175 132,-175 126,-169 126,-163 126,-163 126,-151 126,-151 126,-145 132,-139 138,-139 138,-139 234,-139 234,-139 240,-139 246,-145 246,-151 246,-151 246,-163 246,-163 246,-169 240,-175 234,-175"/>
<text text-anchor="middle" x="186" y="-153.3" font-family="Times,serif" font-size="14.00">ethernet&#45;input</text>
</g>
<!-- n521&#45;&gt;n781 -->
<g id="edge1" class="edge">
<title>n521&#45;&gt;n781</title>
<path fill="none" stroke="#1f77b4" d="M77.35,-157C89.97,-157 104.42,-157 118.56,-157"/>
<polygon fill="#1f77b4" stroke="#1f77b4" points="118.91,-159.45 125.91,-157 118.91,-154.55 118.91,-159.45"/>
<text text-anchor="middle" x="101.5" y="-160" font-family="Times,serif" font-size="10.00" fill="#1f77b4">P0</text>
</g>
<!-- n521&#45;&gt;n781 -->
<g id="edge7" class="edge">
<title>n521&#45;&gt;n781</title>
<path fill="none" stroke="#d62728" d="M77.14,-145.4C83.07,-143.99 89.16,-142.77 95,-142 102.57,-140.99 110.49,-140.9 118.35,-141.41"/>
<polygon fill="#d62728" stroke="#d62728" points="118.35,-143.87 125.54,-142.04 118.78,-138.99 118.35,-143.87"/>
<text text-anchor="middle" x="101.5" y="-145" font-family="Times,serif" font-size="10.00" fill="#d62728">P1</text>
</g>
<!-- n726 -->
<g id="node2" class="node">
<title>n726</title>
<path fill="#f7f7f7" stroke="black" d="M352,-175C352,-175 295,-175 295,-175 289,-175 283,-169 283,-163 283,-163 283,-151 283,-151 283,-145 289,-139 295,-139 295,-139 352,-139 352,-139 358,-139 364,-145 364,-151 364,-151 364,-163 364,-163 364,-169 358,-175 352,-175"/>
<text text-anchor="middle" x="323.5" y="-153.3" font-family="Times,serif" font-size="14.00">ip4&#45;input</text>
</g>
<!-- n740 -->
<g id="node5" class="node">
<title>n740</title>
<path fill="#f7f7f7" stroke="black" d="M480,-175C480,-175 413,-175 413,-175 407,-175 401,-169 401,-163 401,-163 401,-151 401,-151 401,-145 407,-139 413,-139 413,-139 480,-139 480,-139 486,-139 492,-145 492,-151 492,-151 492,-163 492,-163 492,-169 486,-175 480,-175"/>
<text text-anchor="middle" x="446.5" y="-153.3" font-family="Times,serif" font-size="14.00">ip4&#45;lookup</text>
</g>
<!-- n726&#45;&gt;n740 -->
<g id="edge3" class="edge">
<title>n726&#45;&gt;n740</title>
<path fill="none" stroke="#1f77b4" d="M364.12,-150.62C373.55,-150.27 383.75,-150.17 393.63,-150.31"/>
<polygon fill="#1f77b4" stroke="#1f77b4" points="393.71,-152.76 400.76,-150.46 393.81,-147.86 393.71,-152.76"/>
</g>
<!-- n726&#45;&gt;n740 -->
<g id="edge9" class="edge">
<title>n726&#45;&gt;n740</title>
<path fill="none" stroke="#d62728" d="M364.12,-163.38C373.55,-163.73 383.75,-163.83 393.63,-163.69"/>
<polygon fill="#d62728" stroke="#d62728" points="393.81,-166.14 400.76,-163.54 393.71,-161.24 393.81,-166.14"/>
</g>
<!-- n729 -->
<g id="node3" class="node">
<title>n729</title>
<path fill="#f7f7f7" stroke="black" d="M603.5,-203C603.5,-203 550.5,-203 550.5,-203 544.5,-203 538.5,-197 538.5,-191 538.5,-191 538.5,-179 538.5,-179 538.5,-173 544.5,-167 550.5,-167 550.5,-167 603.5,-167 603.5,-167 609.5,-167 615.5,-173 615.5,-179 615.5,-179 615.5,-191 615.5,-191 615.5,-197 609.5,-203 603.5,-203"/>
<text text-anchor="middle" x="577" y="-181.3" font-family="Times,serif" font-size="14.00">ip4&#45;drop</text>
</g>
<!-- n787 -->
<g id="node7" class="node">
<title>n787</title>
<path fill="#f7f7f7" stroke="black" d="M743,-203C743,-203 676,-203 676,-203 670,-203 664,-197 664,-191 664,-191 664,-179 664,-179 664,-173 670,-167 676,-167 676,-167 743,-167 743,-167 749,-167 755,-173 755,-179 755,-179 755,-191 755,-191 755,-197 749,-203 743,-203"/>
<text text-anchor="middle" x="709.5" y="-181.3" font-family="Times,serif" font-size="14.00">error&#45;drop</text>
</g>
<!-- n729&#45;&gt;n787 -->
<g id="edge5" class="edge">
<title>n729&#45;&gt;n787</title>
<path fill="none" stroke="#1f77b4" d="M615.75,-185C628.57,-185 643.12,-185 656.84,-185"/>
<polygon fill="#1f77b4" stroke="#1f77b4" points="656.92,-187.45 663.92,-185 656.92,-182.55 656.92,-187.45"/>
</g>
<!-- n735 -->
<g id="node4" class="node">
<title>n735</title>
<path fill="#f7f7f7" stroke="black" d="M613,-149C613,-149 541,-149 541,-149 535,-149 529,-143 529,-137 529,-137 529,-125 529,-125 529,-119 535,-113 541,-113 541,-113 613,-113 613,-113 619,-113 625,-119 625,-125 625,-125 625,-137 625,-137 625,-143 619,-149 613,-149"/>
<text text-anchor="middle" x="577" y="-127.3" font-family="Times,serif" font-size="14.00">ip4&#45;rewrite</text>
</g>
<!-- n809 -->
<g id="node10" class="node">
<title>n809</title>
<path fill="#f7f7f7" stroke="black" d="M745,-149C745,-149 674,-149 674,-149 668,-149 662,-143 662,-137 662,-137 662,-125 662,-125 662,-119 668,-113 674,-113 674,-113 745,-113 745,-113 751,-113 757,-119 757,-125 757,-125 757,-137 757,-137 757,-143 751,-149 745,-149"/>
<text text-anchor="middle" x="709.5" y="-127.3" font-family="Times,serif" font-size="14.00">pg1&#45;output</text>
</g>
<!-- n735&#45;&gt;n809 -->
<g id="edge11" class="edge">
<title>n735&#45;&gt;n809</title>
<path fill="none" stroke="#d62728" d="M625.11,-131C634.75,-131 644.96,-131 654.8,-131"/>
<polygon fill="#d62728" stroke="#d62728" points="654.89,-133.45 661.89,-131 654.89,-128.55 654.89,-133.45"/>
</g>
<!-- n740&#45;&gt;n729 -->
<g id="edge4" class="edge">
<title>n740&#45;&gt;n729</title>
<path fill="none" stroke="#1f77b4" d="M492.08,-166.71C504.8,-169.49 518.66,-172.51 531.39,-175.28"/>
<polygon fill="#1f77b4" stroke="#1f77b4" points="530.96,-177.69 538.32,-176.79 532.01,-172.91 530.96,-177.69"/>
</g>
<!-- n740&#45;&gt;n735 -->
<g id="edge10" class="edge">
<title>n740&#45;&gt;n735</title>
<path fill="none" stroke="#d62728" d="M492.08,-147.98C501.65,-146.04 511.86,-143.98 521.74,-141.98"/>
<polygon fill="#d62728" stroke="#d62728" points="522.5,-144.33 528.87,-140.54 521.53,-139.52 522.5,-144.33"/>
</g>
<!-- n781&#45;&gt;n726 -->
<g id="edge2" class="edge">
<title>n781&#45;&gt;n726</title>
<path fill="none" stroke="#1f77b4" d="M246.04,-150.3C255.93,-150.19 266.07,-150.27 275.6,-150.54"/>
<polygon fill="#1f77b4" stroke="#1f77b4" points="275.67,-153 282.75,-150.79 275.84,-148.1 275.67,-153"/>
</g>
<!-- n781&#45;&gt;n726 -->
<g id="edge8" class="edge">
<title>n781&#45;&gt;n726</title>
<path fill="none" stroke="#d62728" d="M246.04,-163.7C255.93,-163.81 266.07,-163.73 275.6,-163.46"/>
<polygon fill="#d62728" stroke="#d62728" points="275.84,-165.9 282.75,-163.21 275.67,-161 275.84,-165.9"/>
</g>
<!-- n803 -->
<g id="node8" class="node">
<title>n803</title>
<path fill="#f7f7f7" stroke="black" d="M840,-203C840,-203 810,-203 810,-203 804,-203 798,-197 798,-191 798,-191 798,-179 798,-179 798,-173 804,-167 810,-167 810,-167 840,-167 840,-167 846,-167 852,-173 852,-179 852,-179 852,-191 852,-191 852,-197 846,-203 840,-203"/>
<text text-anchor="middle" x="825" y="-181.3" font-family="Times,serif" font-size="14.00">drop</text>
</g>
<!-- n787&#45;&gt;n803 -->
<g id="edge6" class="edge">
<title>n787&#45;&gt;n803</title>
<path fill="none" stroke="#1f77b4" d="M755.03,-185C766.95,-185 779.63,-185 790.82,-185"/>
<polygon fill="#1f77b4" stroke="#1f77b4" points="790.94,-187.45 797.94,-185 790.94,-182.55 790.94,-187.45"/>
</g>
<!-- n808 -->
<g id="node9" class="node">
<title>n808</title>
<path fill="#f7f7f7" stroke="black" d="M844,-149C844,-149 806,-149 806,-149 800,-149 794,-143 794,-137 794,-137 794,-125 794,-125 794,-119 800,-113 806,-113 806,-113 844,-113 844,-113 850,-113 856,-119 856,-125 856,-125 856,-137 856,-137 856,-143 850,-149 844,-149"/>
<text text-anchor="middle" x="825" y="-127.3" font-family="Times,serif" font-size="14.00">pg1&#45;tx</text>
</g>
<!-- n809&#45;&gt;n808 -->
<g id="edge12" class="edge">
<title>n809&#45;&gt;n808</title>
<path fill="none" stroke="#d62728" d="M757.32,-131C767.15,-131 777.39,-131 786.81,-131"/>
<polygon fill="#d62728" stroke="#d62728" points="786.83,-133.45 793.83,-131 786.83,-128.55 786.83,-133.45"/>
</g>
</g>
</svg>
